<svg viewBox="0 0 640 400" xmlns="http://www.w3.org/2000/svg" role="img" aria-label="Responsible and Safe Use of AI">
  <defs>
    <linearGradient id="ra-bg" x1="0" y1="0" x2="1" y2="1">
      <stop offset="0" stop-color="#FBFCFE"></stop>
      <stop offset="1" stop-color="#EAF0FF"></stop>
    </linearGradient>
    <linearGradient id="ra-shield" x1="0" y1="0" x2="0" y2="1">
      <stop offset="0" stop-color="#FFFFFF"></stop>
      <stop offset="1" stop-color="#EEF3FF"></stop>
    </linearGradient>
    <filter id="ra-soft" x="-40%" y="-40%" width="180%" height="180%">
      <feDropShadow dx="0" dy="12" stdDeviation="16" flood-color="#0A1E3F" flood-opacity="0.14"></feDropShadow>
    </filter>
  </defs>

  <rect width="640" height="400" fill="url(#ra-bg)"></rect>

  <g opacity="0.6">
    <circle cx="76" cy="80" r="82" fill="#E3E9F5">

    </circle>
    <circle cx="566" cy="338" r="70" fill="#D9E4FF">

    </circle>
  </g>


  <circle cx="320" cy="200" r="120" fill="#2C5FE0" opacity="0.06">


  </circle>


  <path d="M320 96 L404 128 L404 208 C404 258 368 288 320 306 C272 288 236 258 236 208 L236 128 Z" fill="url(#ra-shield)" stroke="#2C5FE0" stroke-width="3.5" filter="url(#ra-soft)"></path>


  <path d="M303 196 v-12 a17 17 0 0 1 34 0 v12" fill="none" stroke="#0F2A5E" stroke-width="6" stroke-linecap="round"></path>
  <rect x="292" y="196" width="56" height="44" rx="9" fill="#2C5FE0"></rect>
  <circle cx="320" cy="214" r="5.5" fill="#FFFFFF"></circle>
  <rect x="317.5" y="216" width="5" height="12" rx="2.5" fill="#FFFFFF"></rect>


  <circle cx="378" cy="272" r="20" fill="#FFFFFF" stroke="#E3E9F5" stroke-width="1.5"></circle>
  <circle cx="378" cy="272" r="15" fill="#2C5FE0"></circle>
  <path d="M371 272 l5 6 l10 -12" fill="none" stroke="#FFFFFF" stroke-width="3" stroke-linecap="round" stroke-linejoin="round"></path>
</svg>
